<?xml version="1.0" standalone="no"?>
<!DOCTYPE svg PUBLIC "-//W3C//DTD SVG 20010904//EN"
 "http://www.w3.org/TR/2001/REC-SVG-20010904/DTD/svg10.dtd">
<svg version="1.0" xmlns="http://www.w3.org/2000/svg"
 width="512.000000pt" height="512.000000pt" viewBox="0 0 512.000000 512.000000"
 preserveAspectRatio="xMidYMid meet">
<metadata>
Created by potrace 1.11, written by Peter Selinger 2001-2013
</metadata>
<g transform="translate(0.000000,512.000000) scale(0.100000,-0.100000)"
fill="#000000" stroke="none">
<path d="M3160 5081 c0 -4 -7 -48 -15 -97 -9 -49 -18 -100 -20 -114 -17 -104
-51 -296 -59 -337 -3 -11 -8 -43 -12 -70 -3 -26 -8 -57 -10 -68 -2 -11 -16
-87 -30 -170 -13 -82 -27 -161 -29 -174 -2 -13 -7 -45 -11 -70 -10 -70 -15
-70 -42 5 -65 185 -116 326 -181 509 -40 110 -73 207 -75 215 -5 17 -43 123
-56 155 -4 11 -13 34 -18 50 -6 17 -13 39 -18 50 -4 11 -8 26 -10 33 -7 38
-14 18 -15 -44 -1 -38 -2 -89 -4 -114 -1 -25 -5 -115 -9 -200 -4 -85 -9 -184
-11 -220 -2 -36 -7 -126 -10 -200 -3 -74 -8 -166 -10 -205 -2 -38 -7 -138 -10
-220 -8 -189 -12 -245 -17 -250 -7 -7 -66 -13 -188 -20 -338 -20 -407 -32
-527 -90 -178 -87 -280 -228 -301 -415 l-7 -65 -625 -1 c-344 -1 -629 -2 -634
-3 -8 -1 -2 -117 9 -170 16 -78 59 -171 102 -217 79 -85 132 -103 833 -279
565 -142 694 -185 825 -275 116 -80 173 -176 190 -320 3 -30 8 -66 10 -80 2
-14 7 -50 10 -80 3 -30 8 -66 10 -80 5 -30 13 -88 20 -150 3 -25 7 -56 10 -70
2 -14 7 -45 10 -70 5 -41 15 -101 30 -185 55 -316 136 -556 232 -688 31 -43
134 -139 219 -205 51 -40 130 -73 184 -78 63 -5 93 7 308 127 257 144 1199
721 1572 964 52 34 139 90 193 125 162 104 167 122 78 294 -224 427 -528 789
-866 1029 -44 31 -84 60 -90 65 -21 16 -193 111 -254 140 -62 30 -81 33 -81
10 0 -29 -143 -296 -170 -318 -3 -3 -19 -23 -35 -45 -47 -66 -185 -196 -267
-253 -95 -65 -225 -130 -341 -171 -49 -17 -92 -31 -95 -31 -4 0 17 16 45 35
68 46 187 163 250 245 202 264 329 599 378 995 7 57 8 317 1 355 -3 14 -7 45
-10 70 -4 25 -8 56 -10 70 -3 14 -9 59 -15 100 -6 41 -22 127 -36 190 -13 63
-26 126 -29 140 -17 99 -161 637 -228 853 -27 88 -38 113 -38 88z m-859 -1995
c-42 -87 -123 -160 -198 -182 -105 -30 -216 -1 -288 77 -30 33 -44 59 -31 59
2 0 102 21 222 46 121 25 228 48 239 50 11 2 34 8 50 13 17 4 32 7 34 5 2 -2
-10 -33 -28 -68z"/>
</g>
</svg>
